<svg width="52" height="52" viewBox="0 0 52 52" fill="none" xmlns="http://www.w3.org/2000/svg">
    <circle cx="26" cy="26" r="26" fill="url(#paint0_linear_202_82)"/>
    <path d="M39.9791 20.3152C38.6141 20.4689 36.6846 20.3284 34.107 19.3703C28.0627 17.1227 26.0497 26.1899 26.0497 26.1899C26.0497 26.1899 24.0367 17.1227 17.9923 19.3703C15.4147 20.3284 13.4852 20.4689 12.1202 20.3152C14.5746 15.0858 19.89 11.4653 26.0497 11.4653C32.2093 11.4653 37.5248 15.0858 39.9791 20.3152Z" fill="white"/>
    <path d="M41.4183 26.1899C41.4276 26.4085 41.4329 26.6272 41.4329 26.8485C41.4329 35.3445 34.5457 42.2317 26.0497 42.2317C17.5536 42.2317 10.6665 35.3445 10.6665 26.8485C10.6665 26.6272 10.6718 26.4085 10.681 26.1899C0.967136 23.4771 5.2052 16.7344 5.2052 16.7344C5.2052 16.7344 4.22984 22.8185 11.0706 23.33C12.1785 23.4122 13.4918 23.3499 15.0476 23.0902C17.9221 22.6105 20.8031 24.7242 23.492 28.1406C23.3687 28.028 18.2057 23.3566 16.675 26.1899C16.675 26.1899 23.4946 26.0348 22.9526 36.2642C22.9526 36.2642 23.7226 39.132 26.0497 39.519C28.3767 39.132 29.1467 36.2642 29.1467 36.2642C28.6047 26.0348 35.4243 26.1899 35.4243 26.1899C33.8937 23.3566 28.7306 28.028 28.6073 28.1406C31.2962 24.7242 34.1773 22.6105 37.0517 23.0902C38.6075 23.3499 39.9208 23.4122 41.0287 23.33C47.8695 22.8185 46.8941 16.7344 46.8941 16.7344C46.8941 16.7344 51.1322 23.4771 41.4183 26.1899Z" fill="white"/>
    <defs>
    <linearGradient id="paint0_linear_202_82" x1="26" y1="0" x2="26" y2="52" gradientUnits="userSpaceOnUse">
    <stop stop-color="#14F195"/>
    <stop offset="1" stop-color="#9945FF"/>
    </linearGradient>
    </defs>
    </svg>
    