<svg width="467" height="279" viewBox="0 0 467 279" fill="none" xmlns="http://www.w3.org/2000/svg">
    <path d="M0.618501 119.159C0.19611 119.204 0 119.204 0 119.204C0 119.204 0.211195 119.189 0.618501 119.159Z" fill="#14F195"/>
    <path d="M466.274 260.863C466.274 260.863 416.553 169.312 427.701 139.074C427.701 139.074 381.177 121.622 325.633 86.8834C333.402 100.064 342.77 112.257 353.948 121.789C353.269 121.622 338.018 117.289 310.427 77.0929C308.24 75.6334 306.052 74.1588 303.85 72.6537C247.868 59.1233 219.191 32.473 216.988 30.3598C218.331 31.4544 230.007 40.2263 274.991 51.598C255.456 36.3649 236.162 19.1706 218.557 0C218.557 0 119.989 18.152 98.5679 84.6486C98.5679 84.6486 81.4158 72.5625 47.1418 95.8834C18.2081 115.556 4.5407 118.642 0.98055 119.113C7.39184 118.505 43.5213 114.659 59.1196 103.667C58.486 104.595 37.9548 133.966 0 139.074C0 139.074 35.9937 144.258 72.8473 112.302C72.8473 112.302 87.4198 100.201 95.1284 114.887L77.9914 115.753C77.9914 115.753 63.4189 139.941 107.136 159.811C119.054 165.223 127.728 178.997 134.034 196.145C134.034 196.145 160.282 199.535 161.987 158.944C161.987 158.944 147.475 60.0507 195.959 32.1689C192.052 34.8294 152.875 64.6571 175.699 178.814C175.699 178.814 203.984 212.503 245.137 222.856C245.137 222.856 247.702 257.412 302.537 279C302.19 277.921 287.241 232.981 296.563 213.355C296.563 213.355 263.994 129.573 298.268 91.5659C298.268 91.5659 278.552 169.312 315.42 210.77C315.42 210.77 373.695 227.189 392.552 208.186L376.275 144.258C376.275 144.258 412.268 252.228 466.274 260.863ZM108.871 139.5C108.871 139.5 99.9708 150.203 105.96 134.65L108.811 131.868C110.214 130.698 114.076 125.483 113.683 127.277L108.871 139.5Z" fill="#14F195"/>
    <path d="M216.852 30.238C216.852 30.238 216.852 30.238 216.867 30.2532C216.867 30.2532 216.867 30.2532 216.883 30.2684C216.898 30.2836 216.928 30.2988 216.973 30.3597C216.988 30.3597 216.988 30.3597 216.988 30.3597C218.331 31.4543 230.007 40.2262 274.991 51.5978" fill="#14F195"/>
    <path d="M308.088 73.6419C308.873 74.8277 309.657 75.9679 310.427 77.0929L308.088 73.6419Z" fill="#14F195"/>
    <path d="M325.633 86.8833C333.402 100.064 342.77 112.257 353.948 121.789C353.963 121.804 353.978 121.804 353.978 121.804" fill="#14F195"/>
    <path d="M413.988 121.804L429.421 129.573C429.421 129.573 443.133 83.7972 462.85 145.991C462.85 145.991 473.998 101.934 438.427 94.1654C402.84 86.3816 413.988 121.804 413.988 121.804Z" fill="#14F195"/>
    <path d="M395.131 215.088L379.699 225.456C379.699 225.456 400.396 247.911 412.329 249.644C412.329 249.644 397.696 222.005 395.131 215.088Z" fill="#14F195"/>
    <path d="M213.413 221.138L237.414 228.056L250.267 249.644C250.282 249.644 215.133 246.177 213.413 221.138Z" fill="#14F195"/>
    </svg>
    