<svg width="270" height="45" viewBox="0 0 270 45" fill="none" xmlns="http://www.w3.org/2000/svg">
    <path fill-rule="evenodd" clip-rule="evenodd" d="M39.8583 26.8902C39.0516 27.3863 38.1017 27.4478 37.3796 27.0516C36.4624 26.5478 35.9581 25.3679 35.9581 23.7271V18.8177C35.9581 16.447 34.9946 14.76 33.3835 14.3045C30.6532 13.5307 28.5998 16.7806 27.8281 18.0011L23.0129 25.5962V16.313C22.9587 14.1772 22.2457 12.8996 20.8918 12.5144C19.996 12.2598 18.6557 12.3618 17.3537 14.3001L6.56572 31.1521C5.12146 28.4848 4.36857 25.5147 4.37246 22.5C4.37246 12.3487 12.7348 4.09061 23.0129 4.09061C33.291 4.09061 41.6522 12.3487 41.6522 22.5C41.6522 22.5176 41.6567 22.5329 41.6578 22.5494C41.6578 22.567 41.6544 22.5823 41.6556 22.5999C41.7526 24.5656 41.0982 26.1296 39.8583 26.8913V26.8902ZM45.7939 22.5011V22.5V22.4495L45.7927 22.399C45.7352 10.0361 35.5395 0 23.0118 0C10.4513 0 0.230774 10.0932 0.230774 22.5C0.230774 34.9057 10.4513 45 23.0129 45C28.777 45 34.2782 42.8685 38.5011 38.9996C39.3405 38.2313 39.3901 36.9373 38.6116 36.1098C38.4284 35.9132 38.2067 35.7542 37.9595 35.642C37.7123 35.5299 37.4446 35.4669 37.172 35.4566C36.8995 35.4464 36.6276 35.4892 36.3722 35.5825C36.1169 35.6758 35.8833 35.8177 35.685 36C32.2621 39.1533 27.727 40.9102 23.0129 40.9094C17.5094 40.9094 12.5577 38.5398 9.14257 34.7817L18.8712 19.5849V26.5906C18.8712 29.9557 20.2127 31.0434 21.3375 31.3617C22.4634 31.68 24.184 31.4627 25.9903 28.609L31.3414 20.1699C31.5129 19.8977 31.6708 19.6628 31.8152 19.4598V23.7271C31.8152 26.8727 33.1104 29.3883 35.368 30.6274C37.4033 31.7448 39.9621 31.6438 42.0471 30.364C44.5743 28.811 45.936 25.9496 45.7939 22.5011ZM77.5115 14.8138C78.0587 15.1376 78.5325 15.8576 78.5325 16.5062C78.5325 17.55 77.6209 18.4138 76.5999 18.4138C76.3449 18.4138 76.0899 18.3424 75.871 18.27C74.6672 17.4062 73.1363 16.83 71.5319 16.83C67.7411 16.83 65.1157 19.8538 65.1157 23.5976C65.1157 27.3424 67.7411 30.33 71.5319 30.33C73.4273 30.33 75.105 29.5738 76.381 28.4224C76.7107 28.1919 77.1055 28.0662 77.5115 28.0624C78.5325 28.0624 79.3347 28.8538 79.3347 29.8624C79.3347 30.51 78.933 31.0862 78.4231 31.41C76.5999 32.9224 74.1212 33.93 71.5692 33.93C65.7363 33.93 60.9955 29.25 60.9955 23.49C60.9955 17.73 65.7351 13.05 71.5692 13.05C73.7568 13.05 75.8338 13.6976 77.5115 14.8138ZM88.1777 19.17C92.1512 19.17 95.5054 22.4462 95.5054 26.4776C95.5054 30.51 92.1512 33.93 88.1777 33.93C84.0213 33.93 80.5577 30.51 80.5577 26.4776C80.5577 22.4462 84.0213 19.17 88.1777 19.17ZM88.1404 30.33C89.8914 30.33 91.3852 28.71 91.3852 26.5138C91.3852 24.3187 89.8914 22.95 88.1404 22.95C86.245 22.95 84.6768 24.2824 84.6768 26.5138C84.6768 28.71 86.245 30.33 88.1404 30.33ZM98.0044 31.6976V21.4024C98.0044 20.2862 98.916 19.35 100.047 19.35C101.177 19.35 102.125 20.2862 102.125 21.4024V31.6976C102.125 32.8138 101.177 33.75 100.047 33.75C98.916 33.75 98.0044 32.8138 98.0044 31.6976ZM97.6773 15.4624C97.6773 14.13 98.7333 13.05 100.047 13.05C101.395 13.05 102.489 14.13 102.489 15.4624C102.489 16.7576 101.395 17.8024 100.047 17.8024C98.7333 17.8024 97.6773 16.7576 97.6773 15.4624ZM110.02 26.1176V31.6976C110.02 32.8138 109.072 33.75 107.941 33.75C106.811 33.75 105.899 32.8138 105.899 31.6976V20.9338C105.899 20.07 106.629 19.35 107.504 19.35C108.378 19.35 109.072 20.07 109.072 20.9338C110.749 19.4224 112.206 19.17 113.592 19.17C117.712 19.17 119.535 22.1938 119.535 25.6138V31.6976C119.535 32.8138 118.588 33.75 117.457 33.75C116.327 33.75 115.415 32.8138 115.415 31.6976V26.1176C115.415 24.3538 115.196 22.8776 112.608 22.8776C110.785 22.8776 110.019 24.3538 110.019 26.1176H110.02ZM132.935 28.2424C132.461 28.2424 132.134 28.0262 131.878 27.7376L127.065 22.6624V31.6976C127.065 32.8138 126.117 33.75 124.987 33.75C123.856 33.75 122.945 32.8138 122.945 31.6976V13.8073C123.004 13.6566 123.109 13.5272 123.246 13.4369C123.384 13.3465 123.546 13.2996 123.712 13.3024C124.075 13.3024 124.366 13.5911 124.586 13.8073L132.242 22.1949C132.461 22.4473 132.752 22.5911 132.899 22.5911C133.045 22.5911 133.336 22.4473 133.555 22.196L141.212 13.8073C141.431 13.5911 141.722 13.3024 142.086 13.3024C142.451 13.3024 142.743 13.5187 142.852 13.8073V31.6976C142.852 32.8138 141.941 33.75 140.81 33.75C139.68 33.75 138.732 32.8138 138.732 31.6976V22.6624L133.92 27.7376C133.664 28.0262 133.336 28.2424 132.935 28.2424ZM152.752 30.33C154.612 30.33 156.179 28.71 156.179 26.5138C156.179 24.3187 154.576 22.8776 152.752 22.8776C150.929 22.8776 149.47 24.3538 149.47 26.5138C149.47 28.6376 150.929 30.33 152.752 30.33ZM157.128 32.1662L157.053 31.6976C156.252 33.2451 153.699 33.93 152.059 33.93C148.193 33.93 145.35 30.51 145.35 26.4776C145.35 22.4462 148.267 19.17 152.277 19.17C152.97 19.17 155.267 19.35 157.053 21.4024L157.126 20.9338C157.126 20.07 157.819 19.35 158.695 19.35C159.569 19.35 160.298 20.07 160.298 20.9338V32.1662C160.298 33.03 159.569 33.75 158.694 33.75C157.819 33.75 157.125 33.03 157.125 32.1662H157.128ZM171.73 22.8776H171.294C168.704 23.0224 168.194 24.4624 168.194 26.1176V31.6976C168.194 32.8138 167.247 33.75 166.116 33.75C164.986 33.75 164.074 32.8138 164.074 31.6976V20.9338C164.074 20.07 164.803 19.35 165.678 19.35C166.554 19.35 167.247 20.07 167.247 20.9338C168.778 19.53 170.017 19.2424 171.294 19.17H171.694C172.679 19.17 173.589 19.9976 173.589 21.0424C173.589 22.0138 172.715 22.8776 171.73 22.8776ZM187.61 30.7624C187.793 31.05 187.902 31.3738 187.902 31.7338C187.902 32.7776 186.917 33.75 185.86 33.75C185.131 33.75 184.511 33.21 184.037 32.6338L179.298 27.27V31.6976C179.298 32.8138 178.349 33.75 177.219 33.75C176.088 33.75 175.177 32.8138 175.177 31.6976V15.3549C175.177 14.2376 176.088 13.3024 177.219 13.3024C178.349 13.3024 179.297 14.2376 179.297 15.3549V25.5424L184.037 20.43C184.511 19.89 185.094 19.35 185.824 19.35C186.845 19.35 187.793 20.2862 187.793 21.33C187.793 21.6538 187.719 21.9776 187.536 22.2662L183.782 26.2613L187.61 30.7613V30.7624ZM195.688 22.95C194.557 22.95 192.734 23.5262 192.734 25.2176H198.676C198.676 23.49 196.781 22.95 195.687 22.95H195.688ZM201.083 27.7738H192.734C192.734 30.1862 195.103 30.5462 196.161 30.5462C196.928 30.5462 198.021 30.4024 198.859 30.0413C199.114 29.8624 199.552 29.7176 199.916 29.7176C200.828 29.7176 201.593 30.4749 201.593 31.3749C201.593 31.9862 201.192 32.5262 200.682 32.8138C199.406 33.7138 197.765 33.93 196.198 33.93C192.041 33.93 188.578 31.7349 188.578 26.6576C188.578 22.6624 190.692 19.17 195.615 19.17C199.588 19.17 202.614 21.69 202.687 26.19C202.687 27.0538 201.958 27.7738 201.083 27.7738ZM212.551 33.93H211.421C208.284 33.93 206.462 32.5976 206.462 27.81V22.8776H205.405C204.42 22.8776 203.546 22.0138 203.546 21.0424C203.546 19.9976 204.42 19.17 205.405 19.17H206.462V15.3538C206.462 14.2376 207.374 13.3013 208.504 13.3013C209.634 13.3013 210.583 14.2376 210.583 15.3538V19.17H212.295C213.28 19.17 214.156 19.9976 214.156 21.0424C214.156 22.0138 213.28 22.8776 212.295 22.8776H210.583V27.0176C210.583 29.7538 210.728 30.33 211.968 30.33H212.551C213.535 30.33 214.373 31.1224 214.373 32.13C214.373 33.1024 213.535 33.93 212.551 33.93ZM232.514 14.8138C233.06 15.1376 233.535 15.8576 233.535 16.5062C233.535 17.55 232.623 18.4138 231.602 18.4138C231.347 18.4138 231.091 18.3424 230.874 18.27C229.67 17.4062 228.139 16.83 226.534 16.83C222.744 16.83 220.117 19.8538 220.117 23.5976C220.117 27.3424 222.743 30.33 226.534 30.33C228.43 30.33 230.108 29.5738 231.384 28.4224C231.713 28.1919 232.108 28.0662 232.514 28.0624C233.535 28.0624 234.336 28.8538 234.336 29.8624C234.336 30.51 233.936 31.0862 233.426 31.41C231.602 32.9224 229.123 33.93 226.571 33.93C220.738 33.93 215.998 29.25 215.998 23.49C215.998 17.73 220.737 13.05 226.571 13.05C228.759 13.05 230.836 13.6976 232.514 14.8138ZM242.961 30.33C244.821 30.33 246.388 28.71 246.388 26.5138C246.388 24.3187 244.783 22.8776 242.96 22.8776C241.138 22.8776 239.679 24.3538 239.679 26.5138C239.679 28.6376 241.138 30.33 242.96 30.33H242.961ZM247.335 32.1662L247.263 31.6976C246.461 33.2451 243.909 33.93 242.267 33.93C238.403 33.93 235.559 30.51 235.559 26.4776C235.559 22.4462 238.477 19.17 242.486 19.17C243.179 19.17 245.476 19.35 247.263 21.4024L247.335 20.9338C247.335 20.07 248.028 19.35 248.904 19.35C249.778 19.35 250.508 20.07 250.508 20.9338V32.1662C250.508 33.03 249.778 33.75 248.904 33.75C248.028 33.75 247.335 33.03 247.335 32.1662ZM261.83 30.33C263.653 30.33 265.111 28.6376 265.111 26.5138C265.111 24.3538 263.653 22.8776 261.83 22.8776C260.006 22.8776 258.402 24.3176 258.402 26.5138C258.402 28.71 259.97 30.33 261.83 30.33ZM258.402 32.7424V37.8538C258.402 38.97 257.454 39.9062 256.324 39.9062C255.195 39.9062 254.282 38.97 254.282 37.8538V20.9338C254.282 20.07 255.012 19.35 255.887 19.35C256.762 19.35 257.456 20.07 257.456 21.0776C258.985 19.53 260.882 19.17 262.303 19.17C266.314 19.17 269.231 22.4462 269.231 26.4776C269.231 30.51 266.388 33.93 262.522 33.93C261.32 33.93 259.533 33.57 258.402 32.7424Z" fill="#384BD1"/>
    </svg>
    