<svg width="89" height="79" viewBox="0 0 89 79" fill="none" xmlns="http://www.w3.org/2000/svg">
    <path d="M81.6019 46.0348L88.9062 14.2571C89.4336 11.9627 87.6698 9.77778 85.2901 9.77778H24.5998L23.1836 2.93181C22.8307 1.22543 21.3121 0 19.5505 0H3.70833C1.66025 0 0 1.6416 0 3.66667V6.11111C0 8.13618 1.66025 9.77778 3.70833 9.77778H14.5062L25.3605 62.247C22.7638 63.7236 21.0139 66.4922 21.0139 69.6667C21.0139 74.3918 24.8879 78.2222 29.6667 78.2222C34.4455 78.2222 38.3194 74.3918 38.3194 69.6667C38.3194 67.272 37.3233 65.1085 35.7199 63.5555H68.1133C66.51 65.1085 65.5139 67.272 65.5139 69.6667C65.5139 74.3918 69.3879 78.2222 74.1667 78.2222C78.9455 78.2222 82.8194 74.3918 82.8194 69.6667C82.8194 66.2793 80.8281 63.352 77.94 61.9659L78.7925 58.2571C79.3199 55.9626 77.5561 53.7778 75.1764 53.7778H33.7021L32.6908 48.8889H77.9858C79.7173 48.8889 81.2182 47.7042 81.6019 46.0348Z" fill="url(#paint0_linear_208_302)"/>
    <defs>
    <linearGradient id="paint0_linear_208_302" x1="44.5" y1="0" x2="44.5" y2="78.2222" gradientUnits="userSpaceOnUse">
    <stop stop-color="#14F195"/>
    <stop offset="1" stop-color="#9945FF"/>
    </linearGradient>
    </defs>
    </svg>
    