<svg width="191" height="45" viewBox="0 0 191 45" fill="none" xmlns="http://www.w3.org/2000/svg">
    <path d="M0 22.044C0 9.86948 10.5528 0 23.5703 0C36.5878 0 47.1406 9.86948 47.1406 22.044C47.1406 34.2186 36.5878 44.0881 23.5703 44.0881C10.5528 44.0881 0 34.2186 0 22.044ZM2.19259 22.044C2.19259 33.0684 11.7827 42.0375 23.5703 42.0375C35.358 42.0375 44.9481 33.0684 44.9481 22.044C44.9481 11.0197 35.358 2.05061 23.5703 2.05061C11.7827 2.05061 2.19259 11.0197 2.19259 22.044ZM12.8565 35.1768C11.2933 35.1493 10.2155 34.1706 9.80535 33.39C9.39524 32.6093 9.38677 31.5957 9.77944 30.8267C10.1721 30.0577 17.7201 15.8069 17.9688 15.3171C18.2174 14.8273 18.1915 14.8539 18.195 14.3081C18.1985 13.7624 18.195 7.9792 18.195 7.9792C18.195 7.9792 17.594 7.9792 17.2332 7.9792C16.3612 7.9792 15.9735 7.38685 15.969 6.90729C15.9645 6.44124 16.3104 5.81208 17.1889 5.81021C17.9364 5.81021 19.2459 5.81021 20.5132 5.81021L20.5032 9.128H23.1717V10.213H20.5037V11.325H23.1717V12.4048H20.5037V15.1931C20.5037 15.4728 20.4623 15.4816 20.3133 15.7762C20.1643 16.0707 12.2013 31.1432 11.9501 31.6446C11.699 32.1461 12.2047 32.991 12.9547 33.0041C13.7047 33.0171 33.2376 32.9962 34.1904 32.9962C35.1432 32.9962 35.4043 31.9359 35.2169 31.592C35.0296 31.248 26.8931 15.8922 26.7516 15.5991C26.61 15.3059 26.628 15.3311 26.635 14.8534C26.6419 14.3757 26.635 5.81208 26.635 5.81208H30.0365C30.3381 5.80942 30.6284 5.91892 30.8437 6.11649C31.059 6.31406 31.1815 6.58351 31.1843 6.86558C31.1872 7.14764 31.0701 7.41921 30.8588 7.62053C30.6476 7.82186 30.3595 7.93646 30.0579 7.93912H30.0365C29.725 7.94518 28.9447 7.93912 28.9447 7.93912C28.9447 7.93912 28.9447 14.2606 28.9447 14.6171C28.9447 14.9736 29.0518 15.0533 29.3009 15.524C29.5501 15.9947 36.7313 29.5306 37.2197 30.4469C37.708 31.3631 37.8789 32.6802 37.0054 33.7749C36.1319 34.8697 35.0998 35.1316 34.2786 35.14C33.6099 35.1451 20.8739 35.1866 15.3132 35.1866C14.042 35.1838 13.1471 35.1819 12.8565 35.1768ZM22.7232 29.7804C22.7232 29.6329 22.7699 29.4888 22.8576 29.3662C22.9452 29.2435 23.0697 29.148 23.2154 29.0915C23.3611 29.0351 23.5214 29.0203 23.676 29.0491C23.8307 29.0779 23.9728 29.1489 24.0843 29.2532C24.1958 29.3574 24.2717 29.4903 24.3025 29.635C24.3332 29.7796 24.3174 29.9295 24.2571 30.0658C24.1968 30.202 24.0946 30.3185 23.9634 30.4004C23.8323 30.4824 23.6782 30.5261 23.5205 30.5261C23.309 30.5261 23.1062 30.4475 22.9567 30.3077C22.8072 30.1679 22.7232 29.9782 22.7232 29.7804ZM25.0947 29.6243C25.0554 29.5885 25.0306 29.5411 25.0245 29.4902C25.0184 29.4392 25.0313 29.3879 25.0611 29.3448C25.0909 29.3018 25.1357 29.2697 25.1879 29.2541C25.2402 29.2385 25.2965 29.2403 25.3475 29.2592C25.3985 29.278 25.4409 29.3128 25.4675 29.3576C25.4942 29.4025 25.5034 29.4545 25.4936 29.505C25.4838 29.5554 25.4557 29.6011 25.4139 29.6344C25.3722 29.6676 25.3194 29.6863 25.2646 29.6872C25.2332 29.6879 25.202 29.6827 25.1728 29.6719C25.1436 29.6611 25.117 29.6449 25.0947 29.6243ZM21.6239 29.6243C21.5849 29.5881 21.5605 29.5404 21.5549 29.4893C21.5494 29.4382 21.5629 29.3869 21.5933 29.3441C21.6237 29.3013 21.669 29.2697 21.7215 29.2547C21.774 29.2396 21.8305 29.2421 21.8813 29.2617C21.932 29.2812 21.974 29.3167 22 29.3619C22.0259 29.4072 22.0343 29.4595 22.0236 29.5099C22.0129 29.5603 21.9839 29.6056 21.9414 29.6382C21.899 29.6708 21.8458 29.6886 21.7908 29.6886C21.7283 29.6887 21.6682 29.6656 21.6239 29.6243ZM26.1406 29.0371C26.0258 28.9361 25.9455 28.8055 25.91 28.6619C25.8745 28.5182 25.8853 28.3679 25.9411 28.23C25.9968 28.0921 26.0951 27.9728 26.2234 27.8871C26.3517 27.8014 26.5042 27.7532 26.6618 27.7485C26.8194 27.7439 26.9749 27.7831 27.1087 27.8611C27.2424 27.9391 27.3485 28.0525 27.4134 28.1868C27.4783 28.3212 27.4992 28.4705 27.4733 28.616C27.4475 28.7614 27.3762 28.8965 27.2683 29.004L27.2509 29.0208C27.1761 29.0913 27.0871 29.1473 26.9891 29.1856C26.8911 29.2239 26.786 29.2438 26.6798 29.244C26.5798 29.2445 26.4807 29.2264 26.3881 29.1909C26.2956 29.1554 26.2115 29.1031 26.1406 29.0371ZM19.8399 29.0208C19.736 28.9172 19.6671 28.7874 19.6416 28.6474C19.6161 28.5075 19.6353 28.3636 19.6967 28.2337C19.7581 28.1039 19.859 27.9938 19.9869 27.9173C20.1147 27.8408 20.2638 27.8011 20.4156 27.8034C20.5674 27.8056 20.7152 27.8496 20.8404 27.9298C20.9656 28.0101 21.0628 28.1231 21.1198 28.2546C21.1768 28.3862 21.1911 28.5306 21.161 28.6698C21.1308 28.8089 21.0575 28.9367 20.9502 29.0371C20.8794 29.1032 20.7953 29.1556 20.7028 29.1911C20.6102 29.2266 20.511 29.2446 20.411 29.244C20.3048 29.2438 20.1997 29.224 20.1016 29.1857C20.0036 29.1474 19.9147 29.0913 19.8399 29.0208ZM23.3007 28.5836C23.3007 28.5398 23.3146 28.497 23.3407 28.4606C23.3667 28.4242 23.4037 28.3958 23.447 28.3791C23.4902 28.3623 23.5379 28.358 23.5838 28.3665C23.6297 28.3751 23.6719 28.3962 23.705 28.4272C23.7381 28.4583 23.7606 28.4977 23.7696 28.5407C23.7787 28.5837 23.774 28.6282 23.756 28.6687C23.738 28.7091 23.7076 28.7436 23.6686 28.7679C23.6296 28.7922 23.5838 28.8051 23.5369 28.805C23.5059 28.805 23.4751 28.7993 23.4464 28.7881C23.4177 28.777 23.3917 28.7607 23.3697 28.7401C23.3478 28.7196 23.3304 28.6952 23.3186 28.6683C23.3067 28.6414 23.3007 28.6127 23.3007 28.5836ZM23.3007 27.9605C23.3006 27.9167 23.3144 27.8738 23.3404 27.8374C23.3664 27.8009 23.4033 27.7724 23.4466 27.7556C23.4899 27.7388 23.5375 27.7344 23.5835 27.7429C23.6294 27.7514 23.6717 27.7725 23.7048 27.8035C23.7379 27.8345 23.7605 27.874 23.7696 27.917C23.7787 27.96 23.774 28.0045 23.756 28.045C23.738 28.0854 23.7076 28.12 23.6686 28.1443C23.6296 28.1686 23.5838 28.1815 23.5369 28.1814C23.4743 28.1814 23.4142 28.1581 23.3699 28.1167C23.3256 28.0753 23.3007 28.0191 23.3007 27.9605ZM25.6548 27.8407C25.6163 27.8046 25.5924 27.7572 25.5871 27.7064C25.5818 27.6557 25.5955 27.6048 25.6258 27.5624C25.6562 27.5201 25.7013 27.4888 25.7534 27.4741C25.8056 27.4593 25.8616 27.4619 25.912 27.4815C25.9624 27.501 26.0039 27.5363 26.0296 27.5812C26.0553 27.6262 26.0635 27.6781 26.0528 27.7281C26.0422 27.7781 26.0133 27.8231 25.9712 27.8555C25.9291 27.8878 25.8762 27.9055 25.8217 27.9055C25.7907 27.9055 25.76 27.8998 25.7313 27.8887C25.7027 27.8776 25.6767 27.8613 25.6548 27.8407ZM21.1017 27.8407C21.0631 27.8046 21.039 27.7571 21.0337 27.7062C21.0284 27.6554 21.042 27.6044 21.0724 27.5619C21.1027 27.5194 21.1479 27.4881 21.2002 27.4732C21.2524 27.4584 21.3086 27.461 21.3591 27.4805C21.4095 27.5 21.4512 27.5353 21.477 27.5803C21.5028 27.6254 21.5111 27.6774 21.5005 27.7275C21.4899 27.7776 21.461 27.8228 21.4188 27.8552C21.3766 27.8877 21.3237 27.9054 21.2691 27.9055C21.238 27.9056 21.2072 27.8999 21.1785 27.8887C21.1497 27.8776 21.1236 27.8613 21.1017 27.8407ZM23.3007 27.3351C23.3007 27.2913 23.3146 27.2485 23.3407 27.212C23.3667 27.1756 23.4037 27.1473 23.447 27.1305C23.4902 27.1138 23.5379 27.1094 23.5838 27.118C23.6297 27.1266 23.6719 27.1477 23.705 27.1787C23.7381 27.2097 23.7606 27.2492 23.7696 27.2922C23.7787 27.3351 23.774 27.3797 23.756 27.4201C23.738 27.4606 23.7076 27.4951 23.6686 27.5194C23.6296 27.5436 23.5838 27.5565 23.5369 27.5564C23.5059 27.5564 23.4751 27.5507 23.4464 27.5396C23.4177 27.5285 23.3917 27.5121 23.3697 27.4916C23.3478 27.471 23.3304 27.4466 23.3186 27.4198C23.3067 27.3929 23.3007 27.3641 23.3007 27.3351ZM25.1834 27.3999C25.1447 27.3637 25.1207 27.3161 25.1154 27.2653C25.1101 27.2144 25.1238 27.1634 25.1541 27.1209C25.1845 27.0784 25.2297 27.0471 25.282 27.0323C25.3343 27.0175 25.3905 27.0201 25.441 27.0397C25.4915 27.0593 25.5331 27.0946 25.5589 27.1397C25.5846 27.1848 25.5928 27.2369 25.5821 27.287C25.5714 27.3371 25.5425 27.3822 25.5002 27.4146C25.4579 27.447 25.405 27.4647 25.3503 27.4646C25.2877 27.4645 25.2277 27.4413 25.1834 27.3999ZM21.5731 27.3999C21.5344 27.3637 21.5104 27.3161 21.5051 27.2653C21.4998 27.2144 21.5135 27.1634 21.5439 27.1209C21.5742 27.0784 21.6194 27.0471 21.6717 27.0323C21.724 27.0175 21.7802 27.0201 21.8307 27.0397C21.8812 27.0593 21.9228 27.0946 21.9486 27.1397C21.9743 27.1848 21.9825 27.2369 21.9718 27.287C21.9611 27.3371 21.9322 27.3822 21.8899 27.4146C21.8476 27.447 21.7947 27.4647 21.74 27.4646C21.6774 27.4645 21.6174 27.4413 21.5731 27.3999ZM27.5529 27.3155C27.5142 27.2793 27.4902 27.2318 27.4849 27.1809C27.4796 27.13 27.4933 27.079 27.5236 27.0365C27.554 26.9941 27.5992 26.9628 27.6515 26.9479C27.7038 26.9331 27.76 26.9357 27.8105 26.9553C27.861 26.9749 27.9026 27.0103 27.9283 27.0554C27.9541 27.1005 27.9623 27.1525 27.9516 27.2026C27.9409 27.2527 27.9119 27.2978 27.8697 27.3302C27.8274 27.3626 27.7744 27.3803 27.7198 27.3803C27.6572 27.3802 27.5971 27.3569 27.5529 27.3155ZM19.1204 27.3155C19.0817 27.2793 19.0577 27.2318 19.0524 27.1809C19.0471 27.13 19.0608 27.079 19.0911 27.0365C19.1215 26.9941 19.1667 26.9628 19.219 26.9479C19.2713 26.9331 19.3275 26.9357 19.378 26.9553C19.4285 26.9749 19.4701 27.0103 19.4958 27.0554C19.5216 27.1005 19.5298 27.1525 19.5191 27.2026C19.5084 27.2527 19.4795 27.2978 19.4372 27.3302C19.3949 27.3626 19.3419 27.3803 19.2873 27.3803C19.2563 27.3803 19.2256 27.3746 19.1969 27.3635C19.1683 27.3523 19.1423 27.336 19.1204 27.3155ZM24.7095 26.9576C24.6708 26.9214 24.6468 26.8739 24.6415 26.823C24.6362 26.7721 24.6499 26.7211 24.6803 26.6786C24.7106 26.6361 24.7558 26.6048 24.8081 26.59C24.8604 26.5752 24.9166 26.5778 24.9671 26.5974C25.0176 26.617 25.0592 26.6523 25.085 26.6974C25.1107 26.7425 25.1189 26.7946 25.1082 26.8447C25.0975 26.8948 25.0686 26.9399 25.0263 26.9723C24.984 27.0047 24.9311 27.0224 24.8764 27.0224C24.8138 27.0223 24.7537 26.999 24.7095 26.9576ZM22.045 26.9576C22.0064 26.9214 21.9823 26.8739 21.977 26.823C21.9717 26.7721 21.9854 26.7211 22.0158 26.6786C22.0461 26.6361 22.0913 26.6048 22.1436 26.59C22.1959 26.5752 22.2521 26.5778 22.3026 26.5974C22.3531 26.617 22.3947 26.6523 22.4205 26.6974C22.4462 26.7425 22.4544 26.7946 22.4437 26.8447C22.433 26.8948 22.4041 26.9399 22.3618 26.9723C22.3195 27.0047 22.2666 27.0224 22.2119 27.0224C22.1493 27.0223 22.0892 26.999 22.045 26.9576ZM22.1252 25.5627C22.1252 25.3 22.2085 25.0432 22.3646 24.8248C22.5206 24.6063 22.7424 24.4361 23.0019 24.3356C23.2614 24.235 23.547 24.2087 23.8225 24.26C24.098 24.3112 24.351 24.4377 24.5496 24.6235C24.7483 24.8093 24.8835 25.0459 24.9383 25.3036C24.9931 25.5612 24.965 25.8283 24.8575 26.071C24.75 26.3137 24.568 26.5211 24.3344 26.6671C24.1009 26.813 23.8263 26.8909 23.5454 26.8909C23.1687 26.8909 22.8075 26.751 22.5412 26.5019C22.2748 26.2528 22.1252 25.915 22.1252 25.5627ZM27.2579 25.5394C27.2579 25.3919 27.3046 25.2477 27.3922 25.1251C27.4798 25.0025 27.6044 24.9069 27.75 24.8505C27.8957 24.794 28.056 24.7793 28.2107 24.808C28.3654 24.8368 28.5074 24.9078 28.6189 25.0121C28.7304 25.1164 28.8064 25.2493 28.8371 25.3939C28.8679 25.5386 28.8521 25.6885 28.7918 25.8248C28.7314 25.961 28.6292 26.0775 28.4981 26.1594C28.367 26.2413 28.2129 26.2851 28.0552 26.2851C27.8437 26.2851 27.6409 26.2065 27.4914 26.0667C27.3419 25.9268 27.2579 25.7372 27.2579 25.5394ZM18.2383 25.5394C18.2383 25.3919 18.2851 25.2477 18.3727 25.1251C18.4603 25.0025 18.5848 24.9069 18.7305 24.8505C18.8762 24.794 19.0365 24.7793 19.1912 24.808C19.3459 24.8368 19.4879 24.9078 19.5994 25.0121C19.7109 25.1164 19.7869 25.2493 19.8176 25.3939C19.8484 25.5386 19.8326 25.6885 19.7723 25.8248C19.7119 25.961 19.6097 26.0775 19.4786 26.1594C19.3475 26.2413 19.1933 26.2851 19.0357 26.2851C18.8242 26.2851 18.6214 26.2065 18.4719 26.0667C18.3223 25.9268 18.2383 25.7372 18.2383 25.5394ZM26.5283 25.5552C26.5283 25.5114 26.5422 25.4686 26.5682 25.4322C26.5943 25.3958 26.6313 25.3674 26.6746 25.3507C26.7178 25.3339 26.7655 25.3296 26.8114 25.3382C26.8573 25.3467 26.8995 25.3679 26.9326 25.3989C26.9657 25.4299 26.9882 25.4694 26.9972 25.5123C27.0063 25.5553 27.0016 25.5998 26.9836 25.6403C26.9656 25.6807 26.9352 25.7153 26.8962 25.7395C26.8572 25.7638 26.8114 25.7767 26.7645 25.7766C26.7335 25.7766 26.7027 25.7709 26.674 25.7598C26.6453 25.7486 26.6193 25.7323 26.5973 25.7117C26.5754 25.6912 26.558 25.6668 26.5462 25.6399C26.5343 25.6131 26.5283 25.5843 26.5283 25.5552ZM25.8621 25.5552C25.8622 25.5116 25.8761 25.4689 25.9021 25.4326C25.9281 25.3964 25.9651 25.3681 26.0082 25.3515C26.0514 25.3348 26.0989 25.3305 26.1447 25.3391C26.1904 25.3477 26.2325 25.3688 26.2655 25.3997C26.2985 25.4306 26.3209 25.4699 26.33 25.5128C26.339 25.5556 26.3343 25.6 26.3164 25.6404C26.2986 25.6807 26.2683 25.7152 26.2294 25.7394C26.1906 25.7637 26.145 25.7766 26.0983 25.7766C26.0672 25.7766 26.0365 25.7709 26.0078 25.7598C25.9791 25.7486 25.953 25.7323 25.9311 25.7117C25.9091 25.6912 25.8918 25.6668 25.8799 25.6399C25.8681 25.6131 25.862 25.5843 25.8621 25.5552ZM25.1933 25.5552C25.1934 25.5116 25.2074 25.4689 25.2334 25.4326C25.2594 25.3964 25.2963 25.3681 25.3395 25.3515C25.3827 25.3348 25.4301 25.3305 25.4759 25.3391C25.5217 25.3477 25.5637 25.3688 25.5967 25.3997C25.6297 25.4306 25.6522 25.4699 25.6612 25.5128C25.6703 25.5556 25.6656 25.6 25.6477 25.6404C25.6298 25.6807 25.5995 25.7152 25.5607 25.7394C25.5219 25.7637 25.4762 25.7766 25.4295 25.7766C25.3985 25.7766 25.3677 25.7709 25.339 25.7598C25.3103 25.7486 25.2843 25.7323 25.2623 25.7117C25.2404 25.6912 25.223 25.6668 25.2112 25.6399C25.1993 25.6131 25.1933 25.5843 25.1933 25.5552ZM21.4246 25.5552C21.4246 25.5115 21.4385 25.4687 21.4645 25.4323C21.4905 25.3958 21.5274 25.3675 21.5707 25.3507C21.6139 25.334 21.6615 25.3296 21.7075 25.3381C21.7534 25.3467 21.7955 25.3678 21.8286 25.3987C21.8617 25.4297 21.8843 25.4691 21.8934 25.5121C21.9026 25.555 21.8979 25.5995 21.88 25.64C21.862 25.6804 21.8317 25.715 21.7928 25.7393C21.7539 25.7636 21.7081 25.7766 21.6613 25.7766C21.5985 25.7766 21.5383 25.7533 21.4939 25.7118C21.4495 25.6703 21.4246 25.614 21.4246 25.5552ZM20.7563 25.5552C20.7564 25.5116 20.7704 25.4689 20.7964 25.4326C20.8224 25.3964 20.8593 25.3681 20.9025 25.3515C20.9457 25.3348 20.9931 25.3305 21.0389 25.3391C21.0847 25.3477 21.1267 25.3688 21.1597 25.3997C21.1927 25.4306 21.2152 25.4699 21.2242 25.5128C21.2333 25.5556 21.2286 25.6 21.2107 25.6404C21.1928 25.6807 21.1625 25.7152 21.1237 25.7394C21.0849 25.7637 21.0392 25.7766 20.9925 25.7766C20.9615 25.7766 20.9307 25.7709 20.902 25.7598C20.8733 25.7486 20.8473 25.7323 20.8253 25.7117C20.8034 25.6912 20.786 25.6668 20.7742 25.6399C20.7623 25.6131 20.7563 25.5843 20.7563 25.5552ZM20.0896 25.5552C20.0896 25.5115 20.1035 25.4687 20.1295 25.4323C20.1555 25.3958 20.1925 25.3675 20.2357 25.3507C20.279 25.334 20.3265 25.3296 20.3725 25.3381C20.4184 25.3467 20.4606 25.3678 20.4937 25.3987C20.5268 25.4297 20.5493 25.4691 20.5584 25.5121C20.5676 25.555 20.5629 25.5995 20.545 25.64C20.5271 25.6804 20.4967 25.715 20.4578 25.7393C20.4189 25.7636 20.3731 25.7766 20.3263 25.7766C20.2635 25.7766 20.2033 25.7533 20.1589 25.7118C20.1145 25.6703 20.0896 25.614 20.0896 25.5552ZM24.7105 24.4675C24.6719 24.4313 24.6478 24.3838 24.6425 24.333C24.6372 24.2821 24.6508 24.2311 24.6812 24.1886C24.7115 24.1461 24.7567 24.1148 24.809 24.1C24.8612 24.0851 24.9174 24.0877 24.9679 24.1072C25.0183 24.1268 25.06 24.1621 25.0858 24.2071C25.1116 24.2521 25.1199 24.3041 25.1093 24.3543C25.0987 24.4044 25.0698 24.4495 25.0276 24.482C24.9854 24.5144 24.9325 24.5322 24.8779 24.5323C24.8468 24.5323 24.816 24.5266 24.7873 24.5155C24.7586 24.5043 24.7325 24.488 24.7105 24.4675ZM22.046 24.4675C22.0074 24.4313 21.9833 24.3838 21.978 24.3329C21.9727 24.282 21.9864 24.231 22.0168 24.1885C22.0471 24.146 22.0923 24.1147 22.1446 24.0999C22.1969 24.0851 22.2531 24.0877 22.3036 24.1073C22.3541 24.1269 22.3957 24.1623 22.4215 24.2073C22.4472 24.2524 22.4554 24.3045 22.4447 24.3546C22.434 24.4047 22.4051 24.4498 22.3628 24.4822C22.3205 24.5146 22.2676 24.5323 22.2129 24.5323C22.1503 24.5322 22.0903 24.5089 22.046 24.4675ZM27.5539 24.0802C27.5149 24.044 27.4905 23.9963 27.4849 23.9452C27.4793 23.8941 27.4929 23.8428 27.5232 23.8C27.5536 23.7572 27.5989 23.7256 27.6514 23.7106C27.704 23.6955 27.7604 23.698 27.8112 23.7176C27.862 23.7371 27.9039 23.7726 27.9299 23.8178C27.9559 23.8631 27.9642 23.9154 27.9535 23.9658C27.9429 24.0162 27.9138 24.0615 27.8714 24.0941C27.8289 24.1267 27.7757 24.1445 27.7208 24.1445C27.6897 24.1443 27.6589 24.1384 27.6302 24.127C27.6016 24.1157 27.5756 24.0991 27.5539 24.0783V24.0802ZM19.1712 24.0802C19.1322 24.044 19.1078 23.9963 19.1022 23.9452C19.0967 23.8941 19.1102 23.8428 19.1406 23.8C19.171 23.7572 19.2163 23.7256 19.2688 23.7106C19.3213 23.6955 19.3778 23.698 19.4286 23.7176C19.4793 23.7371 19.5213 23.7726 19.5472 23.8178C19.5732 23.8631 19.5816 23.9154 19.5709 23.9658C19.5602 24.0162 19.5312 24.0615 19.4887 24.0941C19.4463 24.1267 19.3931 24.1445 19.3381 24.1445C19.307 24.1444 19.2762 24.1385 19.2475 24.1271C19.2189 24.1158 19.1929 24.0992 19.1712 24.0783V24.0802ZM25.1834 24.0252C25.1448 23.9891 25.1207 23.9415 25.1154 23.8907C25.1101 23.8398 25.1237 23.7888 25.1541 23.7463C25.1844 23.7039 25.2296 23.6725 25.2819 23.6577C25.3341 23.6429 25.3903 23.6454 25.4408 23.665C25.4912 23.6845 25.5329 23.7198 25.5587 23.7648C25.5845 23.8099 25.5928 23.8619 25.5822 23.912C25.5716 23.9621 25.5427 24.0072 25.5005 24.0397C25.4583 24.0721 25.4054 24.0899 25.3508 24.09C25.3197 24.09 25.2889 24.0843 25.2602 24.0732C25.2315 24.0621 25.2054 24.0458 25.1834 24.0252ZM21.5731 24.0252C21.5345 23.9891 21.5104 23.9415 21.5051 23.8907C21.4998 23.8398 21.5134 23.7888 21.5438 23.7463C21.5741 23.7039 21.6193 23.6725 21.6716 23.6577C21.7238 23.6429 21.78 23.6454 21.8305 23.665C21.8809 23.6845 21.9226 23.7198 21.9484 23.7648C21.9742 23.8099 21.9825 23.8619 21.9719 23.912C21.9613 23.9621 21.9324 24.0072 21.8902 24.0397C21.848 24.0721 21.7951 24.0899 21.7405 24.09C21.7094 24.09 21.6786 24.0843 21.6499 24.0732C21.6212 24.0621 21.5951 24.0458 21.5731 24.0252ZM23.3092 23.7773C23.3093 23.7336 23.3232 23.6909 23.3493 23.6547C23.3753 23.6184 23.4122 23.5902 23.4554 23.5735C23.4985 23.5569 23.546 23.5526 23.5918 23.5611C23.6376 23.5697 23.6796 23.5908 23.7126 23.6217C23.7456 23.6526 23.768 23.692 23.7771 23.7348C23.7862 23.7776 23.7815 23.822 23.7636 23.8624C23.7457 23.9027 23.7154 23.9372 23.6766 23.9614C23.6377 23.9857 23.5921 23.9986 23.5454 23.9986C23.5143 23.9986 23.4836 23.9929 23.4549 23.9818C23.4262 23.9707 23.4001 23.9543 23.3782 23.9338C23.3563 23.9132 23.3389 23.8888 23.327 23.862C23.3152 23.8351 23.3091 23.8063 23.3092 23.7773ZM25.6548 23.582C25.6163 23.5459 25.5924 23.4984 25.5871 23.4477C25.5818 23.3969 25.5955 23.3461 25.6258 23.3037C25.6562 23.2613 25.7013 23.2301 25.7534 23.2153C25.8056 23.2006 25.8616 23.2032 25.912 23.2227C25.9624 23.2423 26.0039 23.2775 26.0296 23.3225C26.0553 23.3675 26.0635 23.4194 26.0528 23.4694C26.0422 23.5194 26.0133 23.5644 25.9712 23.5967C25.9291 23.6291 25.8762 23.6468 25.8217 23.6468C25.7907 23.6468 25.76 23.6411 25.7313 23.6299C25.7027 23.6188 25.6767 23.6025 25.6548 23.582ZM21.1017 23.582C21.0631 23.5459 21.039 23.4983 21.0337 23.4475C21.0284 23.3966 21.042 23.3456 21.0724 23.3031C21.1027 23.2607 21.1479 23.2293 21.2002 23.2145C21.2524 23.1996 21.3086 23.2022 21.3591 23.2217C21.4095 23.2413 21.4512 23.2766 21.477 23.3216C21.5028 23.3666 21.5111 23.4187 21.5005 23.4688C21.4899 23.5189 21.461 23.564 21.4188 23.5965C21.3766 23.6289 21.3237 23.6467 21.2691 23.6468C21.238 23.6468 21.2072 23.6411 21.1785 23.63C21.1498 23.6188 21.1237 23.6026 21.1017 23.582ZM23.3092 23.149C23.3093 23.1054 23.3232 23.0627 23.3493 23.0264C23.3753 22.9902 23.4122 22.9619 23.4554 22.9453C23.4985 22.9286 23.546 22.9243 23.5918 22.9329C23.6376 22.9415 23.6796 22.9626 23.7126 22.9935C23.7456 23.0244 23.768 23.0637 23.7771 23.1066C23.7862 23.1494 23.7815 23.1938 23.7636 23.2341C23.7457 23.2745 23.7154 23.309 23.6766 23.3332C23.6377 23.3575 23.5921 23.3704 23.5454 23.3704C23.4828 23.3704 23.4227 23.3471 23.3784 23.3057C23.3341 23.2643 23.3092 23.2081 23.3092 23.1495V23.149ZM19.821 23.1271C19.7061 23.0262 19.6258 22.8956 19.5902 22.752C19.5546 22.6084 19.5654 22.4581 19.6211 22.3202C19.6768 22.1822 19.775 22.0628 19.9032 21.9771C20.0315 21.8913 20.184 21.8431 20.3416 21.8384C20.4991 21.8337 20.6547 21.8728 20.7885 21.9508C20.9223 22.0287 21.0284 22.142 21.0934 22.2763C21.1583 22.4107 21.1793 22.56 21.1535 22.7055C21.1278 22.8509 21.0565 22.986 20.9487 23.0936C20.9427 23.0992 20.9367 23.1052 20.9307 23.1104C20.856 23.181 20.7671 23.2371 20.6691 23.2755C20.5711 23.3139 20.4659 23.3338 20.3597 23.3341C20.2597 23.3345 20.1607 23.3164 20.0682 23.2809C19.9758 23.2454 19.8918 23.1931 19.821 23.1271ZM26.1571 23.1104C26.0533 23.0068 25.9845 22.877 25.9591 22.7372C25.9338 22.5973 25.953 22.4535 26.0144 22.3238C26.0759 22.1941 26.1768 22.0842 26.3046 22.0077C26.4324 21.9313 26.5814 21.8918 26.7331 21.8941C26.8848 21.8964 27.0324 21.9404 27.1575 22.0206C27.2826 22.1009 27.3797 22.2138 27.4366 22.3453C27.4935 22.4768 27.5078 22.6211 27.4776 22.7601C27.4474 22.8992 27.3741 23.0268 27.2668 23.1271C27.1961 23.1931 27.112 23.2454 27.0196 23.2809C26.9271 23.3164 26.8281 23.3345 26.7281 23.3341C26.6219 23.3338 26.5167 23.3139 26.4187 23.2755C26.3207 23.2371 26.2318 23.181 26.1571 23.1104ZM23.3072 22.5259C23.3072 22.4822 23.3211 22.4394 23.3471 22.4029C23.3731 22.3665 23.4101 22.3382 23.4533 22.3214C23.4966 22.3047 23.5442 22.3003 23.5901 22.3088C23.636 22.3174 23.6782 22.3384 23.7113 22.3694C23.7444 22.4004 23.7669 22.4398 23.7761 22.4827C23.7852 22.5257 23.7805 22.5702 23.7626 22.6106C23.7447 22.6511 23.7143 22.6857 23.6754 22.71C23.6365 22.7343 23.5907 22.7473 23.5439 22.7473C23.4812 22.7472 23.4211 22.7238 23.3769 22.6823C23.3326 22.6408 23.3077 22.5846 23.3077 22.5259H23.3072ZM22.7232 21.2984C22.7232 21.1509 22.7699 21.0067 22.8576 20.8841C22.9452 20.7615 23.0697 20.6659 23.2154 20.6095C23.3611 20.553 23.5214 20.5382 23.676 20.567C23.8307 20.5958 23.9728 20.6668 24.0843 20.7711C24.1958 20.8754 24.2717 21.0082 24.3025 21.1529C24.3332 21.2975 24.3174 21.4475 24.2571 21.5837C24.1968 21.72 24.0946 21.8364 23.9634 21.9184C23.8323 22.0003 23.6782 22.044 23.5205 22.044C23.309 22.044 23.1062 21.9655 22.9567 21.8256C22.8072 21.6858 22.7232 21.4961 22.7232 21.2984ZM25.0932 21.7845C25.0546 21.7483 25.0305 21.7008 25.0252 21.6499C25.0199 21.5991 25.0335 21.5481 25.0639 21.5056C25.0942 21.4631 25.1394 21.4318 25.1917 21.4169C25.2439 21.4021 25.3001 21.4047 25.3506 21.4242C25.401 21.4437 25.4427 21.479 25.4685 21.5241C25.4943 21.5691 25.5026 21.6211 25.492 21.6712C25.4814 21.7213 25.4525 21.7665 25.4103 21.7989C25.3681 21.8314 25.3152 21.8492 25.2606 21.8492C25.2295 21.8492 25.1987 21.8435 25.17 21.8324C25.1413 21.8213 25.1152 21.805 25.0932 21.7845ZM21.6239 21.7672C21.5854 21.7311 21.5615 21.6836 21.5562 21.6329C21.5509 21.5821 21.5646 21.5313 21.5949 21.4889C21.6253 21.4465 21.6704 21.4153 21.7226 21.4005C21.7747 21.3858 21.8308 21.3884 21.8811 21.4079C21.9315 21.4275 21.973 21.4627 21.9987 21.5077C22.0244 21.5527 22.0326 21.6046 22.022 21.6546C22.0113 21.7046 21.9825 21.7496 21.9403 21.782C21.8982 21.8143 21.8454 21.832 21.7908 21.832C21.7282 21.8319 21.6682 21.8086 21.6239 21.7672Z" fill="url(#paint0_linear_212_627)"/>
    <path d="M56.4691 31.5981H63.3359C70.8425 31.5981 73.9122 27.3701 73.9122 21.9155C73.9122 19.5386 73.2982 17.4004 71.7913 15.6238C69.3356 12.5181 65.5963 12.2832 63.0289 12.2832H56.4691V31.5981ZM60.6271 15.7059H63.5851C66.0966 15.7059 67.4919 16.5913 68.3569 17.6372C69.3336 18.8377 69.7522 20.4558 69.7522 21.9714C69.7522 25.4425 68.0221 28.1829 63.5572 28.1829H60.6271V15.7059ZM83.0353 31.5981H94.6162V28.1791H87.1913V23.5075H94.4746V20.0867H87.1933V15.7059H94.6182V12.2851H83.0373L83.0353 31.5981ZM102.374 31.5981H107.034L111.834 24.1879L116.829 31.5981H121.573L114.429 21.524L120.847 12.2851H116.157L112.001 18.6009L107.786 12.2851H103.072L109.546 21.4457L102.374 31.5981ZM130.03 31.5981H140.969V28.1791H134.186V12.2869H130.028L130.03 31.5981ZM153.501 27.8138H161.65L163.156 31.5981H167.705L159.525 12.2851H155.869L147.497 31.5981H152.018L153.501 27.8138ZM160.533 24.708H154.585L157.516 16.8784L160.533 24.708ZM176.017 31.5981H182.379C185.31 31.5981 186.621 31.4154 188.268 30.2409C189.719 29.3014 190.5 27.6572 190.5 25.9067C190.5 25.0715 190.36 22.3573 186.9 21.2611C188.463 20.4521 189.442 19.0707 189.442 17.2941C189.442 15.7021 188.828 14.2928 187.432 13.4315C186.372 12.6747 184.809 12.2832 182.798 12.2832H176.017V31.5981ZM180.175 15.7059H182.463C183.217 15.7059 183.831 15.7842 184.307 15.9929C184.893 16.226 185.453 16.8281 185.453 17.8198C185.453 18.7333 185.09 19.3578 184.281 19.7511C183.751 19.9599 183.081 20.0121 182.495 20.0121H180.179L180.175 15.7059ZM180.175 23.2745H182.965C183.691 23.2745 184.389 23.2745 185.058 23.5355C185.896 23.8747 186.51 24.5533 186.51 25.6755C186.51 26.9022 185.868 27.5546 185.031 27.8939C184.389 28.1549 183.635 28.181 183.105 28.181H180.175V23.2745Z" fill="#0E081A"/>
    <defs>
    <linearGradient id="paint0_linear_212_627" x1="6.0949" y1="4.83151" x2="38.5056" y2="41.8279" gradientUnits="userSpaceOnUse">
    <stop stop-color="#4D2FE5"/>
    <stop offset="0.53" stop-color="#D51FD5"/>
    <stop offset="1" stop-color="#FB767C"/>
    </linearGradient>
    </defs>
    </svg>
    