<svg width="127" height="63" viewBox="0 0 127 63" fill="none" xmlns="http://www.w3.org/2000/svg">
    <path d="M94.7637 0.25H32.25C27.0975 0.249264 22.0247 1.52257 17.4834 3.95655C12.942 6.39054 9.07294 9.90967 6.22062 14.2007C3.36831 18.4916 1.62125 23.4213 1.13499 28.5508C0.648736 33.6803 1.43836 38.8505 3.43358 43.601C5.4288 48.3515 8.56769 52.535 12.5708 55.779C16.5739 59.0229 21.317 61.2267 26.3779 62.1942C31.4388 63.1616 36.6603 62.8627 41.5777 61.324C46.4951 59.7853 50.9557 57.0546 54.5625 53.375H72.4375C76.0438 57.0542 80.5039 59.7847 85.4206 61.3235C90.3374 62.8623 95.5583 63.1616 100.619 62.1948C105.679 61.228 110.422 59.0251 114.425 55.7822C118.428 52.5392 121.568 48.3569 123.564 43.6073C125.56 38.8578 126.351 33.6884 125.866 28.5593C125.381 23.4303 123.636 18.5006 120.785 14.2092C117.934 9.91776 114.067 6.39765 109.527 3.9622C104.987 1.52676 99.9156 0.251519 94.7637 0.25V0.25ZM49.4375 33.8438C49.4375 34.4654 49.1906 35.0615 48.751 35.501C48.3115 35.9406 47.7153 36.1875 47.0937 36.1875H36.9375V46.3438C36.9375 46.9654 36.6906 47.5615 36.251 48.001C35.8115 48.4406 35.2153 48.6875 34.5937 48.6875H29.9062C29.2846 48.6875 28.6885 48.4406 28.249 48.001C27.8094 47.5615 27.5625 46.9654 27.5625 46.3438V36.1875H17.4062C16.7846 36.1875 16.1885 35.9406 15.749 35.501C15.3094 35.0615 15.0625 34.4654 15.0625 33.8438V29.1562C15.0625 28.5346 15.3094 27.9385 15.749 27.499C16.1885 27.0594 16.7846 26.8125 17.4062 26.8125H27.5625V16.6562C27.5625 16.0346 27.8094 15.4385 28.249 14.999C28.6885 14.5594 29.2846 14.3125 29.9062 14.3125H34.5937C35.2153 14.3125 35.8115 14.5594 36.251 14.999C36.6906 15.4385 36.9375 16.0346 36.9375 16.6562V26.8125H47.0937C47.7153 26.8125 48.3115 27.0594 48.751 27.499C49.1906 27.9385 49.4375 28.5346 49.4375 29.1562V33.8438ZM91.625 48.6875C90.0798 48.6875 88.5694 48.2293 87.2846 47.3709C85.9998 46.5124 84.9985 45.2923 84.4072 43.8647C83.8159 42.4372 83.6612 40.8663 83.9626 39.3509C84.264 37.8354 85.0081 36.4433 86.1007 35.3507C87.1933 34.2581 88.5854 33.5141 90.1008 33.2126C91.6163 32.9112 93.1872 33.0659 94.6147 33.6572C96.0422 34.2485 97.2624 35.2498 98.1208 36.5346C98.9793 37.8194 99.4375 39.3298 99.4375 40.875C99.4375 42.947 98.6144 44.9341 97.1493 46.3993C95.6841 47.8644 93.697 48.6875 91.625 48.6875V48.6875ZM104.125 29.9375C102.58 29.9375 101.069 29.4793 99.7846 28.6209C98.4998 27.7624 97.4985 26.5423 96.9072 25.1147C96.3159 23.6872 96.1612 22.1163 96.4626 20.6009C96.764 19.0854 97.5081 17.6933 98.6007 16.6007C99.6933 15.5081 101.085 14.7641 102.601 14.4626C104.116 14.1612 105.687 14.3159 107.115 14.9072C108.542 15.4985 109.762 16.4998 110.621 17.7846C111.479 19.0694 111.937 20.5798 111.937 22.125C111.937 24.197 111.114 26.1841 109.649 27.6493C108.184 29.1144 106.197 29.9375 104.125 29.9375Z" fill="url(#paint0_linear_209_341)"/>
    <defs>
    <linearGradient id="paint0_linear_209_341" x1="63.5" y1="0.25" x2="63.5" y2="62.75" gradientUnits="userSpaceOnUse">
    <stop stop-color="#14F195"/>
    <stop offset="1" stop-color="#9945FF"/>
    </linearGradient>
    </defs>
    </svg>
    