<svg width="61" height="81" viewBox="0 0 61 81" fill="none" xmlns="http://www.w3.org/2000/svg">
    <path d="M35.5833 21.5156V0H3.8125C1.69974 0 0 1.69277 0 3.79688V77.2031C0 79.3072 1.69974 81 3.8125 81H57.1875C59.3003 81 61 79.3072 61 77.2031V25.3125H39.3958C37.299 25.3125 35.5833 23.6039 35.5833 21.5156ZM45.75 58.8516C45.75 59.8957 44.8922 60.75 43.8438 60.75H17.1562C16.1078 60.75 15.25 59.8957 15.25 58.8516V57.5859C15.25 56.5418 16.1078 55.6875 17.1562 55.6875H43.8438C44.8922 55.6875 45.75 56.5418 45.75 57.5859V58.8516ZM45.75 48.7266C45.75 49.7707 44.8922 50.625 43.8438 50.625H17.1562C16.1078 50.625 15.25 49.7707 15.25 48.7266V47.4609C15.25 46.4168 16.1078 45.5625 17.1562 45.5625H43.8438C44.8922 45.5625 45.75 46.4168 45.75 47.4609V48.7266ZM45.75 37.3359V38.6016C45.75 39.6457 44.8922 40.5 43.8438 40.5H17.1562C16.1078 40.5 15.25 39.6457 15.25 38.6016V37.3359C15.25 36.2918 16.1078 35.4375 17.1562 35.4375H43.8438C44.8922 35.4375 45.75 36.2918 45.75 37.3359ZM61 19.285V20.25H40.6667V0H41.6357C42.6523 0 43.6214 0.395508 44.3362 1.10742L59.888 16.6113C60.6029 17.3232 61 18.2883 61 19.285Z" fill="url(#paint0_linear_208_300)"/>
    <defs>
    <linearGradient id="paint0_linear_208_300" x1="30.5" y1="0" x2="30.5" y2="81" gradientUnits="userSpaceOnUse">
    <stop stop-color="#14F195"/>
    <stop offset="1" stop-color="#9945FF"/>
    </linearGradient>
    </defs>
    </svg>
    