<svg width="322" height="63" viewBox="0 0 322 63" fill="none" xmlns="http://www.w3.org/2000/svg">
<path d="M100.532 36.04C101.996 36.352 103.172 37.084 104.06 38.236C104.948 39.364 105.392 40.66 105.392 42.124C105.392 44.236 104.648 45.916 103.16 47.164C101.696 48.388 99.644 49 97.004 49H85.232V23.728H96.608C99.176 23.728 101.18 24.316 102.62 25.492C104.084 26.668 104.816 28.264 104.816 30.28C104.816 31.768 104.42 33.004 103.628 33.988C102.86 34.972 101.828 35.656 100.532 36.04ZM91.388 33.952H95.42C96.428 33.952 97.196 33.736 97.724 33.304C98.276 32.848 98.552 32.188 98.552 31.324C98.552 30.46 98.276 29.8 97.724 29.344C97.196 28.888 96.428 28.66 95.42 28.66H91.388V33.952ZM95.924 44.032C96.956 44.032 97.748 43.804 98.3 43.348C98.876 42.868 99.164 42.184 99.164 41.296C99.164 40.408 98.864 39.712 98.264 39.208C97.688 38.704 96.884 38.452 95.852 38.452H91.388V44.032H95.924ZM115.01 23.728V38.848C115.01 40.36 115.382 41.524 116.126 42.34C116.87 43.156 117.962 43.564 119.402 43.564C120.842 43.564 121.946 43.156 122.714 42.34C123.482 41.524 123.866 40.36 123.866 38.848V23.728H130.022V38.812C130.022 41.068 129.542 42.976 128.582 44.536C127.622 46.096 126.326 47.272 124.694 48.064C123.086 48.856 121.286 49.252 119.294 49.252C117.302 49.252 115.514 48.868 113.93 48.1C112.37 47.308 111.134 46.132 110.222 44.572C109.31 42.988 108.854 41.068 108.854 38.812V23.728H115.01ZM140.501 44.248H148.565V49H134.345V23.728H140.501V44.248ZM157.658 44.248H165.722V49H151.502V23.728H157.658V44.248ZM185.431 49.252C183.583 49.252 181.927 48.952 180.463 48.352C178.999 47.752 177.823 46.864 176.935 45.688C176.071 44.512 175.615 43.096 175.567 41.44H182.119C182.215 42.376 182.539 43.096 183.091 43.6C183.643 44.08 184.363 44.32 185.251 44.32C186.163 44.32 186.883 44.116 187.411 43.708C187.939 43.276 188.203 42.688 188.203 41.944C188.203 41.32 187.987 40.804 187.555 40.396C187.147 39.988 186.631 39.652 186.007 39.388C185.407 39.124 184.543 38.824 183.415 38.488C181.783 37.984 180.451 37.48 179.419 36.976C178.387 36.472 177.499 35.728 176.755 34.744C176.011 33.76 175.639 32.476 175.639 30.892C175.639 28.54 176.491 26.704 178.195 25.384C179.899 24.04 182.119 23.368 184.855 23.368C187.639 23.368 189.883 24.04 191.587 25.384C193.291 26.704 194.203 28.552 194.323 30.928H187.663C187.615 30.112 187.315 29.476 186.763 29.02C186.211 28.54 185.503 28.3 184.639 28.3C183.895 28.3 183.295 28.504 182.839 28.912C182.383 29.296 182.155 29.86 182.155 30.604C182.155 31.42 182.539 32.056 183.307 32.512C184.075 32.968 185.275 33.46 186.907 33.988C188.539 34.54 189.859 35.068 190.867 35.572C191.899 36.076 192.787 36.808 193.531 37.768C194.275 38.728 194.647 39.964 194.647 41.476C194.647 42.916 194.275 44.224 193.531 45.4C192.811 46.576 191.755 47.512 190.363 48.208C188.971 48.904 187.327 49.252 185.431 49.252ZM210.387 49.252C208.011 49.252 205.827 48.7 203.835 47.596C201.867 46.492 200.295 44.956 199.119 42.988C197.967 40.996 197.391 38.764 197.391 36.292C197.391 33.82 197.967 31.6 199.119 29.632C200.295 27.664 201.867 26.128 203.835 25.024C205.827 23.92 208.011 23.368 210.387 23.368C212.763 23.368 214.935 23.92 216.903 25.024C218.895 26.128 220.455 27.664 221.583 29.632C222.735 31.6 223.311 33.82 223.311 36.292C223.311 38.764 222.735 40.996 221.583 42.988C220.431 44.956 218.871 46.492 216.903 47.596C214.935 48.7 212.763 49.252 210.387 49.252ZM210.387 43.636C212.403 43.636 214.011 42.964 215.211 41.62C216.435 40.276 217.047 38.5 217.047 36.292C217.047 34.06 216.435 32.284 215.211 30.964C214.011 29.62 212.403 28.948 210.387 28.948C208.347 28.948 206.715 29.608 205.491 30.928C204.291 32.248 203.691 34.036 203.691 36.292C203.691 38.524 204.291 40.312 205.491 41.656C206.715 42.976 208.347 43.636 210.387 43.636ZM232.892 44.248H240.956V49H226.736V23.728H232.892V44.248ZM259.624 44.536H250.192L248.68 49H242.236L251.38 23.728H258.508L267.652 49H261.136L259.624 44.536ZM258.04 39.784L254.908 30.532L251.812 39.784H258.04ZM293.043 49H286.887L276.591 33.412V49H270.435V23.728H276.591L286.887 39.388V23.728H293.043V49ZM313.237 44.536H303.805L302.293 49H295.849L304.993 23.728H312.121L321.265 49H314.749L313.237 44.536ZM311.653 39.784L308.521 30.532L305.425 39.784H311.653Z" fill="white"/>
<circle cx="31" cy="31" r="31" fill="url(#paint0_linear_209_345)"/>
<path d="M47.6674 24.2219C46.04 24.4052 43.7394 24.2377 40.6661 23.0953C33.4594 20.4155 31.0593 31.2264 31.0593 31.2264C31.0593 31.2264 28.6591 20.4155 21.4524 23.0953C18.3792 24.2377 16.0786 24.4052 14.4511 24.2219C17.3774 17.987 23.7151 13.6702 31.0593 13.6702C38.4035 13.6702 44.7412 17.987 47.6674 24.2219Z" fill="white"/>
<path d="M49.3834 31.2264C49.3945 31.4871 49.4008 31.7478 49.4008 32.0117C49.4008 42.1416 41.1891 50.3532 31.0593 50.3532C20.9294 50.3532 12.7178 42.1416 12.7178 32.0117C12.7178 31.7478 12.7241 31.4871 12.7351 31.2264C1.15319 27.992 6.20627 19.9526 6.20627 19.9526C6.20627 19.9526 5.04333 27.2067 13.1997 27.8166C14.5206 27.9146 16.0865 27.8403 17.9415 27.5306C21.3687 26.9586 24.8038 29.4789 28.0097 33.5523C27.8628 33.418 21.7068 27.8482 19.8818 31.2264C19.8818 31.2264 28.0129 31.0415 27.3666 43.2381C27.3666 43.2381 28.2847 46.6574 31.0593 47.1188C33.8339 46.6574 34.7519 43.2381 34.7519 43.2381C34.1057 31.0415 42.2367 31.2264 42.2367 31.2264C40.4117 27.8482 34.2558 33.418 34.1088 33.5523C37.3148 29.4789 40.7499 26.9586 44.1771 27.5306C46.0321 27.8403 47.5979 27.9146 48.9189 27.8166C57.0752 27.2067 55.9123 19.9526 55.9123 19.9526C55.9123 19.9526 60.9654 27.992 49.3834 31.2264Z" fill="white"/>
<defs>
<linearGradient id="paint0_linear_209_345" x1="31" y1="0" x2="31" y2="62" gradientUnits="userSpaceOnUse">
<stop stop-color="#14F195"/>
<stop offset="1" stop-color="#9945FF"/>
</linearGradient>
</defs>
</svg>
