<svg width="102" height="77" viewBox="0 0 102 77" fill="none" xmlns="http://www.w3.org/2000/svg">
    <path d="M99.6094 63.75C100.924 63.75 102 64.8258 102 66.1406V74.1094C102 75.4242 100.924 76.5 99.6094 76.5H2.39062C1.07578 76.5 0 75.4242 0 74.1094V2.39062C0 1.07578 1.07578 0 2.39062 0H10.3594C11.6742 0 12.75 1.07578 12.75 2.39062V63.75H99.6094ZM74.2488 19.0254L57.375 30.2812L40.3816 7.63008C39.3656 6.27539 37.2938 6.375 36.4172 7.8293L19.125 36.6562V57.375H95.625L77.7152 19.9617C77.0777 18.6668 75.4441 18.2285 74.2488 19.0254V19.0254Z" fill="url(#paint0_linear_209_304)"/>
    <defs>
    <linearGradient id="paint0_linear_209_304" x1="51" y1="0" x2="51" y2="76.5" gradientUnits="userSpaceOnUse">
    <stop stop-color="#14F195"/>
    <stop offset="1" stop-color="#9945FF"/>
    </linearGradient>
    </defs>
    </svg>
    